<?xml version="1.0" encoding="UTF-8"?>
<!DOCTYPE svg PUBLIC "-//W3C//DTD SVG 1.1//EN" "http://www.w3.org/Graphics/SVG/1.1/DTD/svg11.dtd">
<svg xmlns="http://www.w3.org/2000/svg" version="1.1" width="622px" height="157px" style="shape-rendering:geometricPrecision; text-rendering:geometricPrecision; image-rendering:optimizeQuality; fill-rule:evenodd; clip-rule:evenodd" xmlns:xlink="http://www.w3.org/1999/xlink">
<g><path style="opacity:0.971" fill="#fefffe" d="M 28.5,21.5 C 39.5,21.5 50.5,21.5 61.5,21.5C 61.0677,33.8486 60.4011,46.1819 59.5,58.5C 72.5,58.5 85.5,58.5 98.5,58.5C 99.2525,46.1814 99.5858,33.8481 99.5,21.5C 110.833,21.5 122.167,21.5 133.5,21.5C 130.312,54.7419 128.979,88.0752 129.5,121.5C 117.829,121.667 106.162,121.5 94.5,121C 96.0988,107.93 97.0988,94.7638 97.5,81.5C 84.5,81.5 71.5,81.5 58.5,81.5C 57.9447,94.8265 57.6114,108.16 57.5,121.5C 46.1667,121.5 34.8333,121.5 23.5,121.5C 26.3483,88.2306 28.0149,54.8973 28.5,21.5 Z"/></g>
<g><path style="opacity:0.964" fill="#fefffe" d="M 185.5,21.5 C 199.247,20.8624 212.747,21.5291 226,23.5C 237.277,56.0504 249.11,88.3837 261.5,120.5C 249.852,121.499 238.186,121.832 226.5,121.5C 224.447,112.671 221.78,104.004 218.5,95.5C 206.167,94.1667 193.833,94.1667 181.5,95.5C 177.227,103.712 173.227,112.045 169.5,120.5C 157.5,121.833 145.5,121.833 133.5,120.5C 151.624,87.9198 168.957,54.9198 185.5,21.5 Z M 203.5,45.5 C 206.774,53.8162 209.774,62.3162 212.5,71C 205.476,71.8311 198.476,71.6644 191.5,70.5C 195.786,62.2621 199.786,53.9287 203.5,45.5 Z"/></g>
<g><path style="opacity:0.971" fill="#fefffe" d="M 271.5,21.5 C 300.508,21.1668 329.508,21.5002 358.5,22.5C 357.7,29.7841 357.2,37.1174 357,44.5C 340.199,62.9688 323.032,81.1355 305.5,99C 321.493,98.9372 337.493,98.7706 353.5,98.5C 353.404,106.179 353.07,113.846 352.5,121.5C 322.831,121.667 293.165,121.5 263.5,121C 264.316,113.579 264.816,106.079 265,98.5C 282.532,80.6355 299.699,62.4688 316.5,44C 301.238,43.2536 286.071,43.7536 271,45.5C 271.275,37.5302 271.442,29.5302 271.5,21.5 Z"/></g>
<g><path style="opacity:0.976" fill="#fefffe" d="M 373.5,21.5 C 401.175,21.1669 428.841,21.5002 456.5,22.5C 455.535,29.776 455.201,37.1093 455.5,44.5C 438.85,43.6274 422.184,43.2941 405.5,43.5C 405.313,48.8446 404.98,54.1779 404.5,59.5C 418.5,59.5 432.5,59.5 446.5,59.5C 446.095,67.1682 445.595,74.8348 445,82.5C 431.246,81.5101 417.412,81.1767 403.5,81.5C 402.637,87.4549 402.303,93.4549 402.5,99.5C 419.148,98.609 435.815,98.2757 452.5,98.5C 451.857,106.15 451.523,113.817 451.5,121.5C 423.833,121.5 396.167,121.5 368.5,121.5C 371.286,88.2263 372.953,54.893 373.5,21.5 Z"/></g>
<g><path style="opacity:0.966" fill="#fefffe" d="M 474.5,21.5 C 488.5,21.5 502.5,21.5 516.5,21.5C 520.658,40.804 524.825,60.1374 529,79.5C 535.797,60.2757 542.297,40.9424 548.5,21.5C 562.833,21.5 577.167,21.5 591.5,21.5C 589.888,54.8117 588.888,88.1451 588.5,121.5C 579.167,121.5 569.833,121.5 560.5,121.5C 561.999,99.5233 562.499,77.5233 562,55.5C 555.134,77.266 547.967,98.9327 540.5,120.5C 530.94,121.817 521.44,121.817 512,120.5C 507.255,98.7752 502.255,77.1086 497,55.5C 494.895,77.4594 493.395,99.4594 492.5,121.5C 483.5,121.5 474.5,121.5 465.5,121.5C 469.221,88.2307 472.221,54.8973 474.5,21.5 Z"/></g>
</svg>
